<svg width="84" height="84" viewBox="0 0 84 84" fill="none" xmlns="http://www.w3.org/2000/svg">
<path d="M24.5 0.333313H59.5C72.8334 0.333313 83.6667 11.1666 83.6667 24.5V59.5C83.6667 65.9094 81.1206 72.0563 76.5885 76.5884C72.0563 81.1205 65.9094 83.6667 59.5 83.6667H24.5C11.1667 83.6667 0.333374 72.8333 0.333374 59.5V24.5C0.333374 18.0906 2.8795 11.9437 7.41163 7.41157C11.9438 2.87944 18.0906 0.333313 24.5 0.333313ZM23.6667 8.66665C19.6885 8.66665 15.8732 10.247 13.0601 13.06C10.2471 15.8731 8.66671 19.6884 8.66671 23.6666V60.3333C8.66671 68.625 15.375 75.3333 23.6667 75.3333H60.3334C64.3116 75.3333 68.1269 73.753 70.94 70.9399C73.753 68.1269 75.3334 64.3116 75.3334 60.3333V23.6666C75.3334 15.375 68.625 8.66665 60.3334 8.66665H23.6667ZM63.875 14.9166C65.2564 14.9166 66.5811 15.4654 67.5579 16.4421C68.5346 17.4189 69.0834 18.7436 69.0834 20.125C69.0834 21.5063 68.5346 22.8311 67.5579 23.8078C66.5811 24.7846 65.2564 25.3333 63.875 25.3333C62.4937 25.3333 61.1689 24.7846 60.1922 23.8078C59.2154 22.8311 58.6667 21.5063 58.6667 20.125C58.6667 18.7436 59.2154 17.4189 60.1922 16.4421C61.1689 15.4654 62.4937 14.9166 63.875 14.9166ZM42 21.1666C47.5254 21.1666 52.8244 23.3616 56.7314 27.2686C60.6384 31.1756 62.8334 36.4746 62.8334 42C62.8334 47.5253 60.6384 52.8244 56.7314 56.7314C52.8244 60.6384 47.5254 62.8333 42 62.8333C36.4747 62.8333 31.1757 60.6384 27.2687 56.7314C23.3616 52.8244 21.1667 47.5253 21.1667 42C21.1667 36.4746 23.3616 31.1756 27.2687 27.2686C31.1757 23.3616 36.4747 21.1666 42 21.1666ZM42 29.5C38.6848 29.5 35.5054 30.8169 33.1612 33.1611C30.817 35.5054 29.5 38.6848 29.5 42C29.5 45.3152 30.817 48.4946 33.1612 50.8388C35.5054 53.183 38.6848 54.5 42 54.5C45.3153 54.5 48.4947 53.183 50.8389 50.8388C53.1831 48.4946 54.5 45.3152 54.5 42C54.5 38.6848 53.1831 35.5054 50.8389 33.1611C48.4947 30.8169 45.3153 29.5 42 29.5Z" fill="black"/>
</svg>
