<svg width="240" height="224" viewBox="0 0 240 224" fill="none" xmlns="http://www.w3.org/2000/svg">
<path d="M240 112C240 114.122 239.157 116.157 237.657 117.657C236.157 119.157 234.122 120 232 120H215.33C213.424 131.178 207.629 141.323 198.969 148.642C190.308 155.962 179.339 159.984 168 160H128V184H152C160.487 184 168.626 187.371 174.627 193.373C180.629 199.374 184 207.513 184 216C184 218.122 183.157 220.157 181.657 221.657C180.157 223.157 178.122 224 176 224C173.878 224 171.843 223.157 170.343 221.657C168.843 220.157 168 218.122 168 216C168 211.757 166.314 207.687 163.314 204.686C160.313 201.686 156.243 200 152 200H128V216C128 218.122 127.157 220.157 125.657 221.657C124.157 223.157 122.122 224 120 224C117.878 224 115.843 223.157 114.343 221.657C112.843 220.157 112 218.122 112 216V200H88C83.7565 200 79.6869 201.686 76.6863 204.686C73.6857 207.687 72 211.757 72 216C72 218.122 71.1571 220.157 69.6569 221.657C68.1566 223.157 66.1217 224 64 224C61.8783 224 59.8434 223.157 58.3431 221.657C56.8429 220.157 56 218.122 56 216C56 207.513 59.3714 199.374 65.3726 193.373C71.3737 187.371 79.5131 184 88 184H112V160H72C60.6607 159.984 49.6918 155.962 41.0312 148.642C32.3706 141.323 26.5756 131.178 24.67 120H8C5.87827 120 3.84344 119.157 2.34315 117.657C0.842854 116.157 0 114.122 0 112C0 109.878 0.842854 107.843 2.34315 106.343C3.84344 104.843 5.87827 104 8 104H32C34.1217 104 36.1566 104.843 37.6569 106.343C39.1571 107.843 40 109.878 40 112C40 120.487 43.3714 128.626 49.3726 134.627C55.3737 140.629 63.5131 144 72 144H168C176.487 144 184.626 140.629 190.627 134.627C196.629 128.626 200 120.487 200 112C200 109.878 200.843 107.843 202.343 106.343C203.843 104.843 205.878 104 208 104H232C234.122 104 236.157 104.843 237.657 106.343C239.157 107.843 240 109.878 240 112ZM72 128H168C170.292 128 172.558 127.508 174.643 126.556C176.728 125.604 178.585 124.216 180.087 122.484C181.589 120.753 182.701 118.719 183.349 116.52C183.996 114.321 184.164 112.009 183.84 109.74L170.12 13.74C169.56 9.93354 167.654 6.45397 164.748 3.93293C161.841 1.41188 158.127 0.0164734 154.28 0H85.72C81.8726 0.0164734 78.1587 1.41188 75.2523 3.93293C72.346 6.45397 70.4398 9.93354 69.88 13.74L56.16 109.74C55.8362 112.009 56.0038 114.321 56.6514 116.52C57.2989 118.719 58.4114 120.753 59.9134 122.484C61.4154 124.216 63.2718 125.604 65.3571 126.556C67.4424 127.508 69.7078 128 72 128Z" fill="#FF0000"/>
</svg>
