<svg width="136" height="240" viewBox="0 0 136 240" fill="none" xmlns="http://www.w3.org/2000/svg">
<path d="M135.2 54.912V26.736C135.2 17.268 105.104 0 68 0C30.884 0 0.799988 17.268 0.799988 26.736V54.912C0.799988 80.604 47.324 101.808 47.324 120C47.324 138.168 0.799988 159.372 0.799988 185.064V213.264C0.799988 222.72 30.884 240 68 240C105.104 240 135.2 222.72 135.2 213.252V185.052C135.2 159.36 88.676 138.156 88.676 119.988C88.676 101.808 135.2 80.604 135.2 54.912ZM19.292 27.936C27.644 22.668 43.292 14.952 68.66 14.952C94.016 14.952 116.732 27.936 116.732 27.936C118.436 28.968 125.108 32.532 120.536 35.244C110.48 41.208 90.8 47.484 68 47.484C45.2 47.484 26.192 40.572 16.112 34.596C11.54 31.896 19.292 27.936 19.292 27.936ZM74.012 120C74.012 134.316 85.964 143.532 98.624 155.832C107.876 164.808 120.536 177.108 120.536 185.052V200.988C108.896 195.192 74.072 189.528 74.072 170.94C74.072 161.544 61.916 161.544 61.916 170.94C61.916 189.528 27.092 195.192 15.452 200.988V185.052C15.452 177.108 28.124 164.796 37.364 155.832C50.024 143.532 61.976 134.316 61.976 120C61.976 105.684 50.024 96.468 37.364 84.168C28.112 75.168 15.452 62.868 15.452 54.912L14.9 42.936C27.212 49.572 46.724 55.872 68 55.872C89.264 55.872 108.872 49.572 121.196 42.936L120.536 54.912C120.536 62.856 107.864 75.168 98.624 84.168C85.976 96.468 74.012 105.684 74.012 120Z" fill="#FF0000"/>
</svg>
