<svg width="234" height="234" viewBox="0 0 234 234" fill="none" xmlns="http://www.w3.org/2000/svg">
<path d="M223.777 172.764L200.471 149.457C196.252 145.241 190.969 142.249 185.184 140.8C179.399 139.351 173.33 139.5 167.622 141.23C161.915 142.96 156.785 146.206 152.778 150.623C148.771 155.04 146.038 160.462 144.871 166.31C106.437 159.124 69.0572 121.897 66.7305 88.6236C73.2644 87.4217 79.2775 84.2593 83.9705 79.557C90.1495 73.3771 93.6208 64.996 93.6208 56.257C93.6208 47.5179 90.1495 39.1368 83.9705 32.957L60.6705 9.65028C54.4907 3.47127 46.1095 0 37.3705 0C28.6315 0 20.2503 3.47127 14.0705 9.65028C-55.8362 79.557 153.871 289.264 223.777 219.357C229.953 213.177 233.421 204.797 233.421 196.06C233.421 187.323 229.953 178.944 223.777 172.764Z" fill="#FF0000"/>
</svg>
