<svg width="100" height="100" viewBox="0 0 100 100" fill="none" xmlns="http://www.w3.org/2000/svg">
<path fill-rule="evenodd" clip-rule="evenodd" d="M50 8.33337C43.3695 8.33337 37.0107 10.9673 32.3223 15.6557C27.6339 20.3441 24.9999 26.703 24.9999 33.3334V41.1459L21.2499 38.3334C20.8122 38.0051 20.3141 37.7662 19.784 37.6304C19.254 37.4946 18.7024 37.4645 18.1607 37.5419C17.619 37.6193 17.0979 37.8026 16.6271 38.0814C16.1562 38.3602 15.7449 38.729 15.4166 39.1667C15.0883 39.6044 14.8494 40.1026 14.7136 40.6326C14.5778 41.1627 14.5478 41.7143 14.6252 42.256C14.7025 42.7976 14.8859 43.3188 15.1646 43.7896C15.4434 44.2604 15.8122 44.6717 16.2499 45L24.0249 50.8334C22.1749 55.7 17.6624 60.7917 10.3583 65.1792C9.87919 65.4733 9.46386 65.8603 9.13682 66.3175C8.80978 66.7747 8.57765 67.2928 8.45415 67.8412C8.33064 68.3897 8.31826 68.9572 8.41772 69.5105C8.51719 70.0638 8.7265 70.5915 9.03328 71.0625C13.6916 78.05 21.0833 83.3334 29.1666 83.3334C36.5999 83.3334 41.6958 91.6667 50 91.6667C58.3791 91.6667 63.3708 83.3334 70.8333 83.3334C78.9166 83.3334 86.3083 78.05 90.9666 71.0625C91.2734 70.5915 91.4827 70.0638 91.5822 69.5105C91.6816 68.9572 91.6693 68.3897 91.5457 67.8412C91.4222 67.2928 91.1901 66.7747 90.8631 66.3175C90.536 65.8603 90.1207 65.4733 89.6416 65.1792C82.3374 60.7917 77.8249 55.7 75.9749 50.8334L83.75 45C84.634 44.337 85.2185 43.3499 85.3747 42.256C85.531 41.162 85.2463 40.0508 84.5833 39.1667C83.9202 38.2827 82.9332 37.6982 81.8392 37.5419C80.7452 37.3856 79.634 37.6703 78.7499 38.3334L75 41.1459V33.3334C75 26.703 72.366 20.3441 67.6776 15.6557C62.9892 10.9673 56.6304 8.33337 50 8.33337Z" fill="black"/>
</svg>
