<svg width="170" height="190" viewBox="0 0 170 190" fill="none" xmlns="http://www.w3.org/2000/svg">
<path d="M111.809 115.407C105.246 115.407 99.9243 120.717 99.9243 127.267V178.141C99.9243 184.69 105.246 189.999 111.809 189.999C118.373 189.999 123.694 184.69 123.694 178.141V127.267C123.694 120.718 118.373 115.408 111.809 115.408V115.407Z" fill="#A4C639"/>
<path d="M138.942 54.2431C138.981 54.6928 139.016 55.1475 139.016 55.6072V132.686C139.016 140.975 132.44 147.653 124.277 147.653H45.7237C37.5599 147.653 30.9843 140.974 30.9843 132.686V55.6072C30.9843 55.1475 31.001 54.6911 31.0394 54.2431H138.942Z" fill="#A4C639"/>
<path d="M58.1898 115.407C51.6258 115.407 46.3046 120.717 46.3046 127.267V178.141C46.3046 184.69 51.6258 189.999 58.1898 189.999C64.7528 189.999 70.0741 184.69 70.0741 178.141V127.267C70.0741 120.718 64.7528 115.408 58.1898 115.408V115.407ZM158.112 61.1026C151.549 61.1026 146.227 66.4123 146.227 72.962V123.836C146.227 130.385 151.549 135.695 158.112 135.695C164.676 135.695 169.997 130.385 169.997 123.837V72.9629C169.998 66.4132 164.676 61.1026 158.112 61.1026ZM11.8868 61.1026C5.32367 61.1026 0.00242615 66.4123 0.00242615 72.962V123.836C0.00242615 130.385 5.32367 135.695 11.8868 135.695C18.4507 135.695 23.7719 130.385 23.7719 123.837V72.9629C23.7719 66.4132 18.4507 61.1026 11.8868 61.1026ZM138.595 49.1799C138.265 25.5043 117.555 6.0925 90.9726 3.53424H79.0282C52.4437 6.09333 31.7363 25.506 31.4058 49.1799H138.595Z" fill="#A4C639"/>
<path d="M134.461 4.24915L121.924 25.9177M35.5369 4.24915L48.0747 25.9177" stroke="#A4C639" stroke-width="5.87" stroke-linecap="round" stroke-linejoin="round"/>
<path d="M100.966 27.9626C100.956 31.2721 103.701 33.9627 107.097 33.9719C110.492 33.9802 113.253 31.3054 113.263 27.9959V27.9626C113.272 24.6524 110.528 21.9626 107.132 21.9534C103.737 21.9442 100.976 24.6182 100.966 27.9293V27.9626ZM55.0676 27.9626C55.0576 31.2721 57.8025 33.9627 61.1992 33.9719C64.5943 33.9802 67.355 31.3054 67.3651 27.9959V27.9626C67.3742 24.6524 64.6293 21.9626 61.2334 21.9534C57.8384 21.9442 55.0776 24.6182 55.0676 27.9293V27.9626Z" fill="white"/>
</svg>
