<svg width="250" height="250" viewBox="0 0 250 250" fill="none" xmlns="http://www.w3.org/2000/svg">
<g clip-path="url(#clip0_145_2)">
<path d="M131.25 48.95C130.438 48.9588 129.632 48.8076 128.879 48.5049C128.125 48.2023 127.438 47.7542 126.858 47.1862C126.278 46.6182 125.815 45.9414 125.496 45.1946C125.177 44.4477 125.009 43.6453 125 42.8333C125 19.1667 144.6 -1.40213e-05 168.733 -1.40213e-05C169.546 -0.0110224 170.353 0.138701 171.107 0.440547C171.862 0.742394 172.549 1.19041 173.13 1.75884C173.711 2.32727 174.174 3.00489 174.492 3.75276C174.81 4.50063 174.977 5.30399 174.983 6.11665C174.983 29.7833 155.4 48.95 131.25 48.95Z" fill="black"/>
<path d="M131.25 48.95C130.438 48.9588 129.632 48.8076 128.879 48.5049C128.125 48.2023 127.438 47.7542 126.858 47.1862C126.278 46.6182 125.815 45.9414 125.496 45.1946C125.177 44.4477 125.009 43.6453 125 42.8333C125 19.1667 144.6 -1.40213e-05 168.733 -1.40213e-05C169.546 -0.0110224 170.353 0.138701 171.107 0.440547C171.862 0.742394 172.549 1.19041 173.13 1.75884C173.711 2.32727 174.174 3.00489 174.492 3.75276C174.81 4.50063 174.977 5.30399 174.983 6.11665C174.983 29.7833 155.4 48.95 131.25 48.95ZM222.5 177.8C224.917 179.567 225.7 182.8 224.333 185.433C202.333 228.533 184.783 250 168.75 250C161.283 250 153.95 247.633 146.8 243.033C141.668 239.739 135.725 237.926 129.628 237.797C123.531 237.668 117.517 239.226 112.25 242.3C103.583 247.383 95.3333 250 87.5 250C63.9167 250 25 178.883 25 139.867C25 98.2 47.3167 66.4333 81.25 66.4333C97.2167 66.4333 111 68.7333 122.583 73.4167C127.483 75.3833 133.033 75.25 137.817 73C147.217 68.5667 159.617 66.4333 174.983 66.4333C193.767 66.4333 210.15 75.6 223.75 93.35C224.242 93.9901 224.6 94.7224 224.804 95.5035C225.008 96.2847 225.053 97.0988 224.936 97.8976C224.82 98.6965 224.544 99.4638 224.126 100.154C223.707 100.844 223.154 101.444 222.5 101.917C207.317 113.083 200 125.6 200 139.867C200 154.117 207.317 166.65 222.5 177.8Z" fill="black"/>
<path d="M222.5 177.8C224.917 179.567 225.7 182.8 224.333 185.433C202.333 228.533 184.783 250 168.75 250C161.283 250 153.95 247.633 146.8 243.033C141.668 239.739 135.725 237.926 129.628 237.797C123.531 237.668 117.517 239.226 112.25 242.3C103.583 247.383 95.3333 250 87.5 250C63.9167 250 25 178.883 25 139.867C25 98.2 47.3167 66.4333 81.25 66.4333C97.2167 66.4333 111 68.7334 122.583 73.4167C127.483 75.3834 133.033 75.25 137.817 73C147.217 68.5667 159.617 66.4333 174.983 66.4333C193.767 66.4333 210.15 75.6 223.75 93.35C224.242 93.9901 224.6 94.7224 224.804 95.5036C225.008 96.2847 225.053 97.0988 224.936 97.8976C224.82 98.6965 224.544 99.4638 224.126 100.154C223.707 100.845 223.154 101.444 222.5 101.917C207.317 113.083 200 125.6 200 139.867C200 154.117 207.317 166.65 222.5 177.8Z" fill="black"/>
</g>
<defs>
<clipPath id="clip0_145_2">
<rect width="250" height="250" fill="white"/>
</clipPath>
</defs>
</svg>
