<svg width="23" height="21" viewBox="0 0 23 21" fill="none" xmlns="http://www.w3.org/2000/svg">
<path d="M21.4736 9.36223L17.1174 12.9989L18.4223 18.4131C18.4914 18.6962 18.4717 18.9924 18.3657 19.2648C18.2597 19.5372 18.0721 19.7736 17.8263 19.9446C17.5806 20.1156 17.2877 20.2135 16.9841 20.226C16.6805 20.2386 16.3798 20.1653 16.1196 20.0152L11.1828 17.151L6.25668 20.0152C5.99644 20.1653 5.69573 20.2386 5.39217 20.226C5.0886 20.2135 4.79564 20.1156 4.54991 19.9446C4.30419 19.7736 4.1166 19.5372 4.0106 19.2648C3.9046 18.9924 3.8849 18.6962 3.95395 18.4131L5.25696 13.0044L0.899748 9.36223C0.669291 9.1721 0.502646 8.92113 0.420712 8.64077C0.338777 8.36041 0.3452 8.06315 0.439176 7.78628C0.533151 7.5094 0.710496 7.26522 0.948969 7.08437C1.18744 6.90351 1.47643 6.79403 1.77969 6.76966L7.52299 6.29383L9.76486 1.1789C9.88194 0.910515 10.0794 0.68126 10.3324 0.520005C10.5854 0.35875 10.8827 0.272705 11.1867 0.272705C11.4907 0.272705 11.7879 0.35875 12.0409 0.520005C12.294 0.68126 12.4914 0.910515 12.6085 1.1789L14.8571 6.29383L20.5985 6.76966C20.9018 6.79403 21.1907 6.90351 21.4292 7.08437C21.6677 7.26522 21.845 7.5094 21.939 7.78628C22.033 8.06315 22.0394 8.36041 21.9575 8.64077C21.8755 8.92113 21.7089 9.1721 21.4784 9.36223H21.4736Z" fill="#FFB800"/>
</svg>
