<svg width="46" height="76" viewBox="0 0 46 76" fill="none" xmlns="http://www.w3.org/2000/svg">
<path d="M45.8333 2.58331C45.8333 2.03078 45.6138 1.50087 45.2231 1.11017C44.8324 0.719472 44.3025 0.499979 43.75 0.499979H33.3333C28.088 0.238691 22.9525 2.06411 19.0488 5.57739C15.1452 9.09068 12.7908 14.0062 12.5 19.25V30.5H2.08333C1.5308 30.5 1.0009 30.7195 0.610195 31.1102C0.219494 31.5009 0 32.0308 0 32.5833V43.4166C0 43.9692 0.219494 44.4991 0.610195 44.8898C1.0009 45.2805 1.5308 45.5 2.08333 45.5H12.5V73.4166C12.5 73.9692 12.7195 74.4991 13.1102 74.8898C13.5009 75.2805 14.0308 75.5 14.5833 75.5H27.0833C27.6359 75.5 28.1658 75.2805 28.5565 74.8898C28.9472 74.4991 29.1667 73.9692 29.1667 73.4166V45.5H40.0833C40.5466 45.5066 40.9989 45.3587 41.3687 45.0794C41.7384 44.8002 42.0046 44.4057 42.125 43.9583L45.125 33.125C45.2079 32.8172 45.219 32.4944 45.1576 32.1816C45.0961 31.8688 44.9637 31.5743 44.7705 31.3207C44.5773 31.0671 44.3285 30.8613 44.0432 30.719C43.7579 30.5767 43.4438 30.5018 43.125 30.5H29.1667V19.25C29.2703 18.2186 29.7546 17.2629 30.5251 16.5695C31.2956 15.8761 32.2968 15.4948 33.3333 15.5H43.75C44.3025 15.5 44.8324 15.2805 45.2231 14.8898C45.6138 14.4991 45.8333 13.9692 45.8333 13.4166V2.58331Z" fill="white"/>
</svg>
