<svg width="100" height="100" viewBox="0 0 100 100" fill="none" xmlns="http://www.w3.org/2000/svg">
<path fill-rule="evenodd" clip-rule="evenodd" d="M58.3334 8.33337C60.5436 8.33337 62.6632 9.21135 64.226 10.7742C65.7888 12.337 66.6668 14.4566 66.6668 16.6667C66.6689 19.5463 67.6639 22.3372 69.484 24.5687C71.3041 26.8001 73.838 28.3358 76.6584 28.9167C78.8244 29.3565 80.7269 30.6387 81.9474 32.4813C83.168 34.3238 83.6066 36.5758 83.1668 38.7417C82.7269 40.9076 81.4447 42.8101 79.6022 44.0307C77.7596 45.2512 75.5077 45.6899 73.3418 45.25C71.0345 44.7806 68.793 44.0321 66.6668 43.0209V66.6667C66.6666 71.3427 65.3549 75.9249 62.881 79.8928C60.407 83.8606 56.8697 87.0552 52.6711 89.1134C48.4725 91.1716 43.7808 92.0111 39.129 91.5364C34.4771 91.0618 30.0517 89.292 26.3553 86.4282C22.6589 83.5643 19.8398 79.7212 18.2182 75.3354C16.5966 70.9496 16.2375 66.197 17.1818 61.6173C18.126 57.0377 20.3357 52.8146 23.5598 49.4279C26.7839 46.0412 30.8932 43.6266 35.4209 42.4584C37.5476 41.9455 39.7908 42.2895 41.6661 43.4161C43.5414 44.5427 44.8985 46.3615 45.4444 48.48C45.9903 50.5985 45.6812 52.8467 44.5839 54.7393C43.4866 56.6319 41.689 58.0171 39.5793 58.5959C37.6258 59.1142 35.927 60.3241 34.7985 62.0007C33.67 63.6774 33.1886 65.7067 33.4437 67.7116C33.6988 69.7164 34.6731 71.5605 36.1856 72.901C37.698 74.2416 39.6458 74.9875 41.6668 75C43.8769 75 45.9965 74.1221 47.5593 72.5593C49.1221 70.9965 50.0001 68.8768 50.0001 66.6667V16.6667C50.0001 14.4566 50.8781 12.337 52.4409 10.7742C54.0037 9.21135 56.1233 8.33337 58.3334 8.33337Z" fill="white"/>
</svg>
